<svg width="28" height="21" viewBox="0 0 28 21" fill="none" xmlns="http://www.w3.org/2000/svg">
<path d="M25.9417 0.999989C25.8281 0.988285 25.7136 0.988285 25.6 0.999989H2.26667C2.11712 1.00229 1.96857 1.02472 1.825 1.06666L13.8667 13.0583L25.9417 0.999989Z" fill="#26C17E"/>
<path d="M27.175 2.15833L15.0417 14.2417C14.7294 14.5521 14.307 14.7263 13.8667 14.7263C13.4264 14.7263 13.0039 14.5521 12.6917 14.2417L0.666671 2.24999C0.629704 2.38586 0.610103 2.52586 0.608337 2.66666V19.3333C0.608337 19.7754 0.783932 20.1993 1.09649 20.5118C1.40905 20.8244 1.83298 21 2.275 21H25.6083C26.0504 21 26.4743 20.8244 26.7869 20.5118C27.0994 20.1993 27.275 19.7754 27.275 19.3333V2.66666C27.2684 2.49304 27.2346 2.32152 27.175 2.15833ZM3.41667 19.3333H2.25834V18.1417L8.31667 12.1333L9.49167 13.3083L3.41667 19.3333ZM25.5917 19.3333H24.425L18.35 13.3083L19.525 12.1333L25.5833 18.1417L25.5917 19.3333Z" fill="#26C17E"/>
</svg>
