<svg width="10" height="13" viewBox="0 0 10 13" fill="none" xmlns="http://www.w3.org/2000/svg">
<path fill-rule="evenodd" clip-rule="evenodd" d="M0.916707 11.1667H9.08337C9.23808 11.1667 9.38646 11.2281 9.49585 11.3375C9.60525 11.4469 9.66671 11.5953 9.66671 11.75C9.66671 11.9047 9.60525 12.0531 9.49585 12.1625C9.38646 12.2719 9.23808 12.3334 9.08337 12.3334H0.916707C0.761998 12.3334 0.613625 12.2719 0.504228 12.1625C0.394832 12.0531 0.333374 11.9047 0.333374 11.75C0.333374 11.5953 0.394832 11.4469 0.504228 11.3375C0.613625 11.2281 0.761998 11.1667 0.916707 11.1667ZM0.333374 8.25002L6.16671 2.41669L7.91671 4.16669L2.08337 10H0.333374V8.25002ZM6.75004 1.83335L7.91671 0.666687L9.66671 2.41669L8.49946 3.58394L6.75004 1.83335Z" fill="white"/>
</svg>
