<svg width="24" height="24" viewBox="0 0 24 24" fill="none" xmlns="http://www.w3.org/2000/svg">
<path d="M22.8896 13.9512C23.0097 13.292 23.0742 12.6182 23.0742 11.9443C23.0742 10.4502 22.7812 9 22.2041 7.6377C21.6474 6.31934 20.8476 5.13574 19.831 4.11914C18.8229 3.10846 17.6279 2.30348 16.3125 1.74902C14.9472 1.17188 13.5 0.878906 12.0058 0.878906C11.3027 0.878906 10.5966 0.946289 9.91109 1.07812C8.9625 0.575458 7.90553 0.311971 6.83199 0.310547C5.08297 0.310547 3.43648 0.993164 2.20015 2.22949C1.59008 2.83643 1.10638 3.55828 0.776999 4.35331C0.447623 5.14834 0.279112 6.00077 0.281208 6.86133C0.281208 7.97461 0.568318 9.07031 1.10445 10.0371C0.996052 10.6641 0.937458 11.3057 0.937458 11.9443C0.937458 13.4385 1.23043 14.8887 1.80758 16.251C2.36422 17.5693 3.16109 18.7529 4.17769 19.7695C5.19429 20.7861 6.37789 21.583 7.69625 22.1396C9.06148 22.7168 10.5087 23.0098 12.0029 23.0098C12.6533 23.0098 13.3037 22.9512 13.9423 22.8369C14.9238 23.3906 16.0312 23.6865 17.165 23.6865C18.914 23.6865 20.5605 23.0068 21.7968 21.7676C23.0361 20.5312 23.7158 18.8848 23.7158 17.1357C23.7187 16.0225 23.4316 14.9238 22.8896 13.9512ZM12.0498 18.7236C8.11812 18.7236 6.36031 16.79 6.36031 15.3428C6.36031 14.5986 6.90816 14.0801 7.66402 14.0801C9.34566 14.0801 8.91207 16.4971 12.0498 16.4971C13.6582 16.4971 14.5459 15.624 14.5459 14.7305C14.5459 14.1943 14.2822 13.5967 13.2216 13.3359L9.72359 12.4629C6.90816 11.7568 6.39547 10.2334 6.39547 8.80371C6.39547 5.83301 9.19332 4.7168 11.8212 4.7168C14.2412 4.7168 17.0947 6.05566 17.0947 7.83691C17.0947 8.60156 16.4326 9.04395 15.6767 9.04395C14.2412 9.04395 14.5048 7.05762 11.6132 7.05762C10.1777 7.05762 9.38375 7.70801 9.38375 8.63672C9.38375 9.56543 10.5175 9.86133 11.5019 10.0869L14.0918 10.6611C16.9277 11.2939 17.6455 12.9492 17.6455 14.5078C17.6455 16.9189 15.791 18.7236 12.0498 18.7236Z" fill="#26C17E"/>
</svg>
